<?xml version="1.0" encoding="utf-8"?>
<!-- Generator: Adobe Illustrator 16.0.0, SVG Export Plug-In . SVG Version: 6.00 Build 0)  -->
<svg version="1.1" id="Layer_1" xmlns="http://www.w3.org/2000/svg" xmlns:xlink="http://www.w3.org/1999/xlink" x="0px" y="0px"
	 width="756px" height="157.801px" viewBox="0 0 756 157.801" enable-background="new 0 0 756 157.801" xml:space="preserve">
<g>
	<g>
		<path d="M124.764,130.877c-0.573-1.736-1.435-3.185-2.558-4.381c-1.136-1.197-2.483-2.011-4.093-2.484
			c-1.172-0.336-2.881-0.51-5.128-0.51h-9.957v26.975h10.256c2.009,0,3.619-0.172,4.829-0.559c1.61-0.515,2.895-1.236,3.831-2.16
			c1.236-1.209,2.196-2.795,2.882-4.768c0.562-1.597,0.836-3.531,0.836-5.75C125.663,134.719,125.364,132.584,124.764,130.877z
			 M119.461,141.943c-0.361,1.224-0.835,2.07-1.409,2.606c-0.6,0.537-1.323,0.898-2.196,1.111c-0.688,0.199-1.771,0.275-3.319,0.275
			h-4.055v-17.883h2.458c2.222,0,3.693,0.09,4.467,0.25c1.023,0.236,1.859,0.648,2.521,1.287c0.66,0.625,1.172,1.496,1.534,2.606
			c0.386,1.109,0.563,2.722,0.563,4.813C120.023,139.086,119.847,140.747,119.461,141.943z"/>
		<path d="M140.662,123.502v26.975h5.452v-26.975H140.662z"/>
		<path d="M174.414,136.027v4.531h6.251v3.42c-0.836,0.635-1.822,1.17-2.958,1.623c-1.148,0.446-2.308,0.685-3.443,0.685
			c-2.308,0-4.167-0.785-5.589-2.396c-1.411-1.607-2.147-4.018-2.147-7.223c0-2.972,0.711-5.191,2.122-6.713
			c1.409-1.523,3.293-2.261,5.676-2.261c1.573,0,2.871,0.375,3.944,1.147c1.047,0.773,1.747,1.822,2.133,3.146l5.403-1.01
			c-0.537-2.472-1.747-4.442-3.631-5.828c-1.884-1.41-4.504-2.123-7.849-2.123c-2.582,0-4.74,0.453-6.475,1.349
			c-2.259,1.176-3.993,2.846-5.167,5.03c-1.172,2.195-1.758,4.681-1.758,7.498c0,2.584,0.524,4.979,1.584,7.177
			c1.047,2.207,2.633,3.893,4.729,5.09c2.096,1.172,4.555,1.771,7.375,1.771c2.221,0,4.417-0.424,6.575-1.26
			c2.184-0.849,3.831-1.812,4.967-2.919v-10.733H174.414L174.414,136.027z"/>
		<path d="M201.59,123.502v26.975h5.427v-26.975H201.59z"/>
		<path d="M220.842,123.502v4.553h7.999v22.422h5.44v-22.422h7.999v-4.553H220.842L220.842,123.502z"/>
		<path d="M267.098,123.502h-5.777l-10.506,26.975h5.789l2.222-6.111h10.768l2.371,6.111h5.927L267.098,123.502z M260.497,139.811
			l3.655-10.033l3.719,10.033H260.497z"/>
		<path d="M296.932,145.938v-22.225h-5.453v26.764h19.003v-4.539H296.932z"/>
		<path d="M363.088,123.502l-4.854,18.404l-4.891-18.404h-8.148v26.975h5.066v-21.248l5.328,21.248h5.253l5.365-21.248v21.248h5.041
			v-26.975H363.088z"/>
		<path d="M400.748,123.502h-5.753l-10.506,26.975h5.764l2.246-6.111h10.769l2.384,6.111h5.916L400.748,123.502z M394.172,139.811
			l3.655-10.033l3.718,10.033H394.172z"/>
		<path d="M446.003,145.213c-1.31-2.096-2.334-3.57-3.106-4.381c-0.773-0.834-1.745-1.586-2.932-2.271
			c2.383-0.336,4.154-1.172,5.354-2.474c1.197-1.321,1.771-3.02,1.771-5.024c0-1.601-0.386-3.01-1.174-4.256
			c-0.772-1.236-1.821-2.106-3.119-2.584c-1.321-0.486-3.417-0.724-6.313-0.724h-11.455v26.976h5.454v-11.267h1.084
			c1.262,0,2.184,0.113,2.758,0.299c0.587,0.214,1.111,0.574,1.622,1.138c0.523,0.537,1.484,1.858,2.896,3.967l3.932,5.863h6.513
			L446.003,145.213z M434.5,134.92h-4.018v-6.865h4.254c2.195,0,3.529,0.039,3.979,0.102c0.874,0.148,1.548,0.5,2.045,1.047
			c0.488,0.563,0.725,1.31,0.725,2.209c0,0.813-0.187,1.496-0.548,2.021c-0.361,0.537-0.887,0.924-1.548,1.135
			C438.754,134.807,437.132,134.92,434.5,134.92z"/>
		<path d="M476.474,133.997l10.185-10.494h-7.339l-11.005,11.965v-11.965h-5.453v26.975h5.453v-8.146l4.431-4.504l7.41,12.65h7.025
			L476.474,133.997z"/>
		<path d="M506.021,145.938v-7.352h13.551v-4.553h-13.551v-5.979h14.548V123.5h-20v26.976h20.513v-4.539L506.021,145.938
			L506.021,145.938z"/>
		<path d="M534.333,123.502v4.553h7.999v22.422h5.453v-22.422h7.997v-4.553H534.333L534.333,123.502z"/>
		<path d="M569.694,123.502v26.975h5.454v-26.975H569.694z"/>
		<path d="M607.29,123.502v18.016l-11.054-18.016h-5.305v26.975h5.065v-17.592l10.881,17.592h5.453v-26.975H607.29z"/>
		<path d="M641.205,136.027v4.531h6.252v3.42c-0.824,0.635-1.797,1.17-2.958,1.623c-1.147,0.446-2.283,0.685-3.442,0.685
			c-2.283,0-4.169-0.785-5.58-2.396c-1.434-1.607-2.133-4.018-2.133-7.223c0-2.972,0.699-5.191,2.098-6.713
			c1.409-1.523,3.306-2.261,5.677-2.261c1.585,0,2.896,0.375,3.942,1.147c1.047,0.773,1.746,1.822,2.135,3.146l5.427-1.01
			c-0.548-2.472-1.746-4.442-3.655-5.828c-1.884-1.41-4.491-2.123-7.849-2.123c-2.558,0-4.718,0.453-6.45,1.349
			c-2.259,1.176-3.994,2.846-5.165,5.03c-1.187,2.195-1.786,4.681-1.786,7.498c0,2.584,0.538,4.979,1.586,7.177
			c1.072,2.207,2.632,3.893,4.741,5.09c2.097,1.172,4.553,1.771,7.386,1.771c2.223,0,4.395-0.424,6.576-1.26
			c2.159-0.849,3.809-1.812,4.967-2.919v-10.733H641.205L641.205,136.027z"/>
	</g>
	<g>
		<polygon fill="#00C8FA" points="158.456,6.961 139.709,6.942 138.073,11.331 90.938,112.803 115.525,112.803 149.08,40.562 
			182.636,112.803 207.222,112.803 160.087,11.331 		"/>
		<polygon fill="#00C8FA" points="307.302,10.284 273.29,63.416 237.158,6.961 216.314,6.942 216.314,112.803 238.896,112.803 
			238.896,51.472 273.29,105.202 307.688,51.47 307.688,112.803 330.273,112.803 330.273,6.942 309.379,6.942 		"/>
		<g>
			<rect x="338.305" y="90.917" fill="#00C8FA" width="92.474" height="21.889"/>
			<rect x="338.305" y="48.538" fill="#00C8FA" width="66.656" height="22.116"/>
			<rect x="338.309" y="6.942" fill="#00C8FA" width="92.464" height="22.655"/>
		</g>
		<path fill="#00C8FA" d="M529.883,60.511c7.053-5.852,10.937-13.459,10.937-21.421c0-7.966-3.888-15.572-10.945-21.422
			c-8.232-6.815-20.179-10.725-32.773-10.725h-57.025v22H497.1c7.229,0,14.299,2.321,18.445,6.057
			c1.859,1.678,2.691,3.263,2.691,4.091c0,0.975-1.129,2.694-2.688,4.09c-4.146,3.733-11.218,6.052-18.45,6.052h-41.556
			l-15.471-0.08v63.652h22.584V73.554l55.386,39.249h38.019l-58.653-41.57C509.881,71.17,521.703,67.27,529.883,60.511z"/>
		<polygon fill="#00C8FA" points="626.114,6.961 607.896,6.942 606.259,11.331 559.123,112.803 583.711,112.803 617.271,40.562 
			650.818,112.803 675.413,112.803 628.137,11.034 		"/>
		<polygon fill="#00C8FA" points="645.752,6.938 656.289,29.598 684.977,29.598 684.977,112.799 707.563,112.799 707.563,29.598 
			749,29.598 749,6.938 		"/>
		<polygon fill="#00C8FA" points="71.19,45.413 78.379,34.637 51.62,34.637 8.13,101.771 7,103.54 7,112.762 78.203,112.795 
			91.355,90.135 42.458,90.135 		"/>
		<rect x="8.128" y="6.862" fill="#00C8FA" width="20.096" height="21.516"/>
		<rect x="43.864" y="6.863" fill="#00C8FA" width="19.322" height="21.513"/>
		<polygon fill="#00C8FA" points="78.827,6.942 78.827,32.317 96.761,6.942 		"/>
	</g>
</g>
</svg>
